<svg xmlns="http://www.w3.org/2000/svg" style="display:none">
<defs>

<symbol id="icon-github" viewBox="0 0 24 24" fill="none" stroke="currentColor" stroke-width="2" stroke-linecap="round" stroke-linejoin="round">
  <path d="M15 22v-3.87a3.37 3.37 0 0 0-.94-2.61c3.14-.35 6.44-1.54 6.44-7A5.44 5.44 0 0 0 19 4.77 5.07 5.07 0 0 0 18.91.65S17.73.35 15 2.19a13.38 13.38 0 0 0-7 0C5.27.35 4.09.65 4.09.65A5.07 5.07 0 0 0 4 4.77a5.44 5.44 0 0 0-1.5 3.78c0 5.42 3.3 6.61 6.44 7A3.37 3.37 0 0 0 8 18.13V22"></path>
  <path d="M9 20c-3 1-4-1-5-2"></path>
</symbol>

<symbol id="icon-external-link" viewBox="0 0 24 24" fill="none" stroke="currentColor" stroke-width="2" stroke-linecap="round" stroke-linejoin="round">
  <path d="M18 13v6a2 2 0 0 1-2 2H5a2 2 0 0 1-2-2V8a2 2 0 0 1 2-2h6"></path>
  <polyline points="15 3 21 3 21 9"></polyline>
  <line x1="10" y1="14" x2="21" y2="3"></line>
</symbol>

<symbol id="icon-mail" viewBox="0 0 24 24" fill="none" stroke="currentColor" stroke-width="2" stroke-linecap="round" stroke-linejoin="round">
  <path d="M4 4h16c1.1 0 2 .9 2 2v12c0 1.1-.9 2-2 2H4c-1.1 0-2-.9-2-2V6c0-1.1.9-2 2-2z"></path>
  <polyline points="22,6 12,13 2,6"></polyline>
</symbol>

<symbol id="icon-linkedin" viewBox="0 0 24 24" fill="none" stroke="currentColor" stroke-width="2" stroke-linecap="round" stroke-linejoin="round">
  <path d="M16 8a6 6 0 0 1 6 6v7h-4v-7a2 2 0 0 0-2-2 2 2 0 0 0-2 2v7h-4V8h4v1.5A5 5 0 0 1 16 8z"></path>
  <rect x="2" y="9" width="4" height="12"></rect>
  <circle cx="4" cy="4" r="2"></circle>
</symbol>

<symbol id="icon-chevron-right" viewBox="0 0 24 24" fill="none" stroke="currentColor" stroke-width="2" stroke-linecap="round" stroke-linejoin="round">
  <polyline points="9 18 15 12 9 6"></polyline>
</symbol>

<symbol id="icon-arrow-left" viewBox="0 0 24 24" fill="none" stroke="currentColor" stroke-width="2" stroke-linecap="round" stroke-linejoin="round">
  <line x1="19" y1="12" x2="5" y2="12"></line>
  <polyline points="12 19 5 12 12 5"></polyline>
</symbol>

<symbol id="icon-star" viewBox="0 0 24 24" fill="none" stroke="currentColor" stroke-width="2" stroke-linecap="round" stroke-linejoin="round">
  <polygon points="12 2 15.09 8.26 22 9.27 17 14.14 18.18 21.02 12 17.77 5.82 21.02 7 14.14 2 9.27 8.91 8.26 12 2"></polygon>
</symbol>

<symbol id="icon-git-fork" viewBox="0 0 24 24" fill="none" stroke="currentColor" stroke-width="2" stroke-linecap="round" stroke-linejoin="round">
  <circle cx="6" cy="6" r="2.2"></circle>
  <circle cx="18" cy="6" r="2.2"></circle>
  <circle cx="12" cy="18" r="2.2"></circle>
  <path d="M6 8.2V11a3 3 0 0 0 3 3h6a3 3 0 0 0 3-3V8.2"></path>
  <line x1="12" y1="14" x2="12" y2="15.8"></line>
</symbol>

<symbol id="icon-calendar" viewBox="0 0 24 24" fill="none" stroke="currentColor" stroke-width="2" stroke-linecap="round" stroke-linejoin="round">
  <rect x="3" y="4" width="18" height="18" rx="2"></rect>
  <line x1="16" y1="2" x2="16" y2="6"></line>
  <line x1="8" y1="2" x2="8" y2="6"></line>
  <line x1="3" y1="10" x2="21" y2="10"></line>
</symbol>

<symbol id="icon-clock" viewBox="0 0 24 24" fill="none" stroke="currentColor" stroke-width="2" stroke-linecap="round" stroke-linejoin="round">
  <circle cx="12" cy="12" r="10"></circle>
  <polyline points="12 6 12 12 16 14"></polyline>
</symbol>

<symbol id="icon-check-circle" viewBox="0 0 24 24" fill="none" stroke="currentColor" stroke-width="2" stroke-linecap="round" stroke-linejoin="round">
  <path d="M22 11.08V12a10 10 0 1 1-5.93-9.14"></path>
  <polyline points="22 4 12 14.01 9 11.01"></polyline>
</symbol>

<symbol id="icon-zap" viewBox="0 0 24 24" fill="none" stroke="currentColor" stroke-width="2" stroke-linecap="round" stroke-linejoin="round">
  <polygon points="13 2 3 14 12 14 11 22 21 10 12 10 13 2"></polygon>
</symbol>

<symbol id="icon-database" viewBox="0 0 24 24" fill="none" stroke="currentColor" stroke-width="2" stroke-linecap="round" stroke-linejoin="round">
  <ellipse cx="12" cy="5" rx="9" ry="3"></ellipse>
  <path d="M3 5v14c0 1.66 4.03 3 9 3s9-1.34 9-3V5"></path>
  <path d="M3 12c0 1.66 4.03 3 9 3s9-1.34 9-3"></path>
</symbol>

<symbol id="icon-bar-chart" viewBox="0 0 24 24" fill="none" stroke="currentColor" stroke-width="2" stroke-linecap="round" stroke-linejoin="round">
  <line x1="18" y1="20" x2="18" y2="10"></line>
  <line x1="12" y1="20" x2="12" y2="4"></line>
  <line x1="6" y1="20" x2="6" y2="14"></line>
</symbol>

<symbol id="icon-sun" viewBox="0 0 24 24" fill="none" stroke="currentColor" stroke-width="2" stroke-linecap="round" stroke-linejoin="round">
  <circle cx="12" cy="12" r="4"></circle>
  <line x1="12" y1="2" x2="12" y2="4"></line>
  <line x1="12" y1="20" x2="12" y2="22"></line>
  <line x1="4.93" y1="4.93" x2="6.34" y2="6.34"></line>
  <line x1="17.66" y1="17.66" x2="19.07" y2="19.07"></line>
  <line x1="2" y1="12" x2="4" y2="12"></line>
  <line x1="20" y1="12" x2="22" y2="12"></line>
  <line x1="4.93" y1="19.07" x2="6.34" y2="17.66"></line>
  <line x1="17.66" y1="6.34" x2="19.07" y2="4.93"></line>
</symbol>

<symbol id="icon-moon" viewBox="0 0 24 24" fill="none" stroke="currentColor" stroke-width="2" stroke-linecap="round" stroke-linejoin="round">
  <path d="M21 12.79A9 9 0 1 1 11.21 3 7 7 0 0 0 21 12.79z"></path>
</symbol>

</defs>
</svg>
